{
	"asset":{
		"generator":"Khronos glTF Blender I/O v3.6.27",
		"version":"2.0"
	},
	"scene":0,
	"scenes":[
		{
			"name":"Scene",
			"nodes":[
				0,
				1,
				2,
				7
			]
		}
	],
	"nodes":[
		{
			"mesh":0,
			"name":"Icosphere"
		},
		{
			"mesh":1,
			"name":"seat"
		},
		{
			"mesh":2,
			"name":"steering wheel"
		},
		{
			"name":"Bone.001",
			"rotation":[
				0,
				4.1359030627651384e-25,
				3.980806303480993e-24,
				1
			],
			"scale":[
				0.9999999403953552,
				1.0000001192092896,
				1
			],
			"translation":[
				0.536247968673706,
				1.363939881324768,
				-0.20546996593475342
			]
		},
		{
			"name":"Bone.002",
			"rotation":[
				-5.21540641784668e-08,
				1.0629270871306406e-22,
				3.153626085358418e-24,
				1
			],
			"scale":[
				0.9999999403953552,
				1,
				1
			],
			"translation":[
				-0.828464925289154,
				1.3639400005340576,
				-0.2054699957370758
			]
		},
		{
			"name":"neutral_bone",
			"rotation":[
				-0.7071067690849304,
				0,
				0,
				0.7071067690849304
			]
		},
		{
			"mesh":3,
			"name":"head.001",
			"skin":0
		},
		{
			"children":[
				6,
				3,
				4,
				5
			],
			"name":"bones.002",
			"rotation":[
				0.17435716092586517,
				0,
				0,
				0.9846825003623962
			],
			"scale":[
				0.47117161750793457,
				0.6382715106010437,
				0.5180839896202087
			]
		}
	],
	"animations":[
		{
			"channels":[
				{
					"sampler":0,
					"target":{
						"node":3,
						"path":"translation"
					}
				},
				{
					"sampler":1,
					"target":{
						"node":3,
						"path":"rotation"
					}
				},
				{
					"sampler":2,
					"target":{
						"node":3,
						"path":"scale"
					}
				},
				{
					"sampler":3,
					"target":{
						"node":4,
						"path":"translation"
					}
				},
				{
					"sampler":4,
					"target":{
						"node":4,
						"path":"rotation"
					}
				},
				{
					"sampler":5,
					"target":{
						"node":4,
						"path":"scale"
					}
				}
			],
			"name":"eyewiggle",
			"samplers":[
				{
					"input":19,
					"interpolation":"STEP",
					"output":20
				},
				{
					"input":21,
					"interpolation":"LINEAR",
					"output":22
				},
				{
					"input":19,
					"interpolation":"STEP",
					"output":23
				},
				{
					"input":19,
					"interpolation":"STEP",
					"output":24
				},
				{
					"input":21,
					"interpolation":"LINEAR",
					"output":25
				},
				{
					"input":19,
					"interpolation":"STEP",
					"output":26
				}
			]
		},
		{
			"channels":[
				{
					"sampler":0,
					"target":{
						"node":3,
						"path":"translation"
					}
				},
				{
					"sampler":1,
					"target":{
						"node":3,
						"path":"rotation"
					}
				},
				{
					"sampler":2,
					"target":{
						"node":3,
						"path":"scale"
					}
				},
				{
					"sampler":3,
					"target":{
						"node":4,
						"path":"translation"
					}
				},
				{
					"sampler":4,
					"target":{
						"node":4,
						"path":"rotation"
					}
				},
				{
					"sampler":5,
					"target":{
						"node":4,
						"path":"scale"
					}
				}
			],
			"name":"Happy",
			"samplers":[
				{
					"input":27,
					"interpolation":"STEP",
					"output":28
				},
				{
					"input":29,
					"interpolation":"LINEAR",
					"output":30
				},
				{
					"input":29,
					"interpolation":"LINEAR",
					"output":31
				},
				{
					"input":27,
					"interpolation":"STEP",
					"output":32
				},
				{
					"input":29,
					"interpolation":"LINEAR",
					"output":33
				},
				{
					"input":29,
					"interpolation":"LINEAR",
					"output":34
				}
			]
		},
		{
			"channels":[
				{
					"sampler":0,
					"target":{
						"node":3,
						"path":"translation"
					}
				},
				{
					"sampler":1,
					"target":{
						"node":3,
						"path":"rotation"
					}
				},
				{
					"sampler":2,
					"target":{
						"node":3,
						"path":"scale"
					}
				},
				{
					"sampler":3,
					"target":{
						"node":4,
						"path":"translation"
					}
				},
				{
					"sampler":4,
					"target":{
						"node":4,
						"path":"rotation"
					}
				},
				{
					"sampler":5,
					"target":{
						"node":4,
						"path":"scale"
					}
				}
			],
			"name":"sad",
			"samplers":[
				{
					"input":35,
					"interpolation":"STEP",
					"output":36
				},
				{
					"input":37,
					"interpolation":"LINEAR",
					"output":38
				},
				{
					"input":35,
					"interpolation":"STEP",
					"output":39
				},
				{
					"input":35,
					"interpolation":"STEP",
					"output":40
				},
				{
					"input":37,
					"interpolation":"LINEAR",
					"output":41
				},
				{
					"input":35,
					"interpolation":"STEP",
					"output":42
				}
			]
		}
	],
	"materials":[
		{
			"doubleSided":true,
			"name":"Material",
			"pbrMetallicRoughness":{
				"baseColorTexture":{
					"index":0
				},
				"metallicFactor":0,
				"roughnessFactor":0.5
			}
		},
		{
			"doubleSided":true,
			"name":"Material.002",
			"pbrMetallicRoughness":{
				"baseColorTexture":{
					"index":1
				},
				"metallicFactor":0,
				"roughnessFactor":0.5
			}
		}
	],
	"meshes":[
		{
			"name":"Icosphere",
			"primitives":[
				{
					"attributes":{
						"POSITION":0,
						"NORMAL":1,
						"TEXCOORD_0":2
					},
					"indices":3,
					"material":0
				}
			]
		},
		{
			"name":"Icosphere.001",
			"primitives":[
				{
					"attributes":{
						"POSITION":4,
						"NORMAL":5,
						"TEXCOORD_0":6
					},
					"indices":7,
					"material":0
				}
			]
		},
		{
			"name":"Icosphere.002",
			"primitives":[
				{
					"attributes":{
						"POSITION":8,
						"NORMAL":9,
						"TEXCOORD_0":10
					},
					"indices":11,
					"material":0
				}
			]
		},
		{
			"name":"Sphere.003",
			"primitives":[
				{
					"attributes":{
						"POSITION":12,
						"NORMAL":13,
						"TEXCOORD_0":14,
						"JOINTS_0":15,
						"WEIGHTS_0":16
					},
					"indices":17,
					"material":1
				}
			]
		}
	],
	"textures":[
		{
			"sampler":0,
			"source":0
		},
		{
			"sampler":0,
			"source":1
		}
	],
	"images":[
		{
			"mimeType":"image/png",
			"name":"Tron",
			"uri":"Tron.png"
		},
		{
			"mimeType":"image/jpeg",
			"name":"alienskin",
			"uri":"alienskin.jpg"
		}
	],
	"skins":[
		{
			"inverseBindMatrices":18,
			"joints":[
				3,
				4,
				5
			],
			"name":"bones.002"
		}
	],
	"accessors":[
		{
			"bufferView":0,
			"componentType":5126,
			"count":1120,
			"max":[
				3.4940688610076904,
				-0.047133054584264755,
				3.499581813812256
			],
			"min":[
				-3.5101561546325684,
				-3.5211846828460693,
				-3.4995815753936768
			],
			"type":"VEC3"
		},
		{
			"bufferView":1,
			"componentType":5126,
			"count":1120,
			"type":"VEC3"
		},
		{
			"bufferView":2,
			"componentType":5126,
			"count":1120,
			"type":"VEC2"
		},
		{
			"bufferView":3,
			"componentType":5123,
			"count":1680,
			"type":"SCALAR"
		},
		{
			"bufferView":4,
			"componentType":5126,
			"count":3231,
			"max":[
				1.296681523323059,
				0.9415244460105896,
				0.8710317611694336
			],
			"min":[
				-1.3194576501846313,
				-1.214901089668274,
				-1.825998306274414
			],
			"type":"VEC3"
		},
		{
			"bufferView":5,
			"componentType":5126,
			"count":3231,
			"type":"VEC3"
		},
		{
			"bufferView":6,
			"componentType":5126,
			"count":3231,
			"type":"VEC2"
		},
		{
			"bufferView":7,
			"componentType":5123,
			"count":5184,
			"type":"SCALAR"
		},
		{
			"bufferView":8,
			"componentType":5126,
			"count":512,
			"max":[
				0.6029274463653564,
				0.69120192527771,
				2.3364179134368896
			],
			"min":[
				-0.6043463349342346,
				0.48122262954711914,
				1.1617563962936401
			],
			"type":"VEC3"
		},
		{
			"bufferView":9,
			"componentType":5126,
			"count":512,
			"type":"VEC3"
		},
		{
			"bufferView":10,
			"componentType":5126,
			"count":512,
			"type":"VEC2"
		},
		{
			"bufferView":11,
			"componentType":5123,
			"count":768,
			"type":"SCALAR"
		},
		{
			"bufferView":12,
			"componentType":5126,
			"count":161478,
			"max":[
				0.989220917224884,
				1.566238284111023,
				0.9407418966293335
			],
			"min":[
				-1.0800554752349854,
				-1.0863888263702393,
				-1.1148865222930908
			],
			"type":"VEC3"
		},
		{
			"bufferView":13,
			"componentType":5126,
			"count":161478,
			"type":"VEC3"
		},
		{
			"bufferView":14,
			"componentType":5126,
			"count":161478,
			"type":"VEC2"
		},
		{
			"bufferView":15,
			"componentType":5121,
			"count":161478,
			"type":"VEC4"
		},
		{
			"bufferView":16,
			"componentType":5126,
			"count":161478,
			"type":"VEC4"
		},
		{
			"bufferView":17,
			"componentType":5125,
			"count":244224,
			"type":"SCALAR"
		},
		{
			"bufferView":18,
			"componentType":5126,
			"count":3,
			"type":"MAT4"
		},
		{
			"bufferView":19,
			"componentType":5126,
			"count":2,
			"max":[
				1.6666666666666667
			],
			"min":[
				0
			],
			"type":"SCALAR"
		},
		{
			"bufferView":20,
			"componentType":5126,
			"count":2,
			"type":"VEC3"
		},
		{
			"bufferView":21,
			"componentType":5126,
			"count":41,
			"max":[
				1.6666666666666667
			],
			"min":[
				0
			],
			"type":"SCALAR"
		},
		{
			"bufferView":22,
			"componentType":5126,
			"count":41,
			"type":"VEC4"
		},
		{
			"bufferView":23,
			"componentType":5126,
			"count":2,
			"type":"VEC3"
		},
		{
			"bufferView":24,
			"componentType":5126,
			"count":2,
			"type":"VEC3"
		},
		{
			"bufferView":25,
			"componentType":5126,
			"count":41,
			"type":"VEC4"
		},
		{
			"bufferView":26,
			"componentType":5126,
			"count":2,
			"type":"VEC3"
		},
		{
			"bufferView":27,
			"componentType":5126,
			"count":2,
			"max":[
				1.4583333333333333
			],
			"min":[
				0
			],
			"type":"SCALAR"
		},
		{
			"bufferView":28,
			"componentType":5126,
			"count":2,
			"type":"VEC3"
		},
		{
			"bufferView":29,
			"componentType":5126,
			"count":36,
			"max":[
				1.4583333333333333
			],
			"min":[
				0
			],
			"type":"SCALAR"
		},
		{
			"bufferView":30,
			"componentType":5126,
			"count":36,
			"type":"VEC4"
		},
		{
			"bufferView":31,
			"componentType":5126,
			"count":36,
			"type":"VEC3"
		},
		{
			"bufferView":32,
			"componentType":5126,
			"count":2,
			"type":"VEC3"
		},
		{
			"bufferView":33,
			"componentType":5126,
			"count":36,
			"type":"VEC4"
		},
		{
			"bufferView":34,
			"componentType":5126,
			"count":36,
			"type":"VEC3"
		},
		{
			"bufferView":35,
			"componentType":5126,
			"count":2,
			"max":[
				1.25
			],
			"min":[
				0
			],
			"type":"SCALAR"
		},
		{
			"bufferView":36,
			"componentType":5126,
			"count":2,
			"type":"VEC3"
		},
		{
			"bufferView":37,
			"componentType":5126,
			"count":31,
			"max":[
				1.25
			],
			"min":[
				0
			],
			"type":"SCALAR"
		},
		{
			"bufferView":38,
			"componentType":5126,
			"count":31,
			"type":"VEC4"
		},
		{
			"bufferView":39,
			"componentType":5126,
			"count":2,
			"type":"VEC3"
		},
		{
			"bufferView":40,
			"componentType":5126,
			"count":2,
			"type":"VEC3"
		},
		{
			"bufferView":41,
			"componentType":5126,
			"count":31,
			"type":"VEC4"
		},
		{
			"bufferView":42,
			"componentType":5126,
			"count":2,
			"type":"VEC3"
		}
	],
	"bufferViews":[
		{
			"buffer":0,
			"byteLength":13440,
			"byteOffset":0,
			"target":34962
		},
		{
			"buffer":0,
			"byteLength":13440,
			"byteOffset":13440,
			"target":34962
		},
		{
			"buffer":0,
			"byteLength":8960,
			"byteOffset":26880,
			"target":34962
		},
		{
			"buffer":0,
			"byteLength":3360,
			"byteOffset":35840,
			"target":34963
		},
		{
			"buffer":0,
			"byteLength":38772,
			"byteOffset":39200,
			"target":34962
		},
		{
			"buffer":0,
			"byteLength":38772,
			"byteOffset":77972,
			"target":34962
		},
		{
			"buffer":0,
			"byteLength":25848,
			"byteOffset":116744,
			"target":34962
		},
		{
			"buffer":0,
			"byteLength":10368,
			"byteOffset":142592,
			"target":34963
		},
		{
			"buffer":0,
			"byteLength":6144,
			"byteOffset":152960,
			"target":34962
		},
		{
			"buffer":0,
			"byteLength":6144,
			"byteOffset":159104,
			"target":34962
		},
		{
			"buffer":0,
			"byteLength":4096,
			"byteOffset":165248,
			"target":34962
		},
		{
			"buffer":0,
			"byteLength":1536,
			"byteOffset":169344,
			"target":34963
		},
		{
			"buffer":0,
			"byteLength":1937736,
			"byteOffset":170880,
			"target":34962
		},
		{
			"buffer":0,
			"byteLength":1937736,
			"byteOffset":2108616,
			"target":34962
		},
		{
			"buffer":0,
			"byteLength":1291824,
			"byteOffset":4046352,
			"target":34962
		},
		{
			"buffer":0,
			"byteLength":645912,
			"byteOffset":5338176,
			"target":34962
		},
		{
			"buffer":0,
			"byteLength":2583648,
			"byteOffset":5984088,
			"target":34962
		},
		{
			"buffer":0,
			"byteLength":976896,
			"byteOffset":8567736,
			"target":34963
		},
		{
			"buffer":0,
			"byteLength":192,
			"byteOffset":9544632
		},
		{
			"buffer":0,
			"byteLength":8,
			"byteOffset":9544824
		},
		{
			"buffer":0,
			"byteLength":24,
			"byteOffset":9544832
		},
		{
			"buffer":0,
			"byteLength":164,
			"byteOffset":9544856
		},
		{
			"buffer":0,
			"byteLength":656,
			"byteOffset":9545020
		},
		{
			"buffer":0,
			"byteLength":24,
			"byteOffset":9545676
		},
		{
			"buffer":0,
			"byteLength":24,
			"byteOffset":9545700
		},
		{
			"buffer":0,
			"byteLength":656,
			"byteOffset":9545724
		},
		{
			"buffer":0,
			"byteLength":24,
			"byteOffset":9546380
		},
		{
			"buffer":0,
			"byteLength":8,
			"byteOffset":9546404
		},
		{
			"buffer":0,
			"byteLength":24,
			"byteOffset":9546412
		},
		{
			"buffer":0,
			"byteLength":144,
			"byteOffset":9546436
		},
		{
			"buffer":0,
			"byteLength":576,
			"byteOffset":9546580
		},
		{
			"buffer":0,
			"byteLength":432,
			"byteOffset":9547156
		},
		{
			"buffer":0,
			"byteLength":24,
			"byteOffset":9547588
		},
		{
			"buffer":0,
			"byteLength":576,
			"byteOffset":9547612
		},
		{
			"buffer":0,
			"byteLength":432,
			"byteOffset":9548188
		},
		{
			"buffer":0,
			"byteLength":8,
			"byteOffset":9548620
		},
		{
			"buffer":0,
			"byteLength":24,
			"byteOffset":9548628
		},
		{
			"buffer":0,
			"byteLength":124,
			"byteOffset":9548652
		},
		{
			"buffer":0,
			"byteLength":496,
			"byteOffset":9548776
		},
		{
			"buffer":0,
			"byteLength":24,
			"byteOffset":9549272
		},
		{
			"buffer":0,
			"byteLength":24,
			"byteOffset":9549296
		},
		{
			"buffer":0,
			"byteLength":496,
			"byteOffset":9549320
		},
		{
			"buffer":0,
			"byteLength":24,
			"byteOffset":9549816
		}
	],
	"samplers":[
		{
			"magFilter":9729,
			"minFilter":9987
		}
	],
	"buffers":[
		{
			"byteLength":9549840,
			"uri":"alienkart_separate.bin"
		}
	]
}
