{
	"asset":{
		"generator":"Khronos glTF Blender I/O v3.6.27",
		"version":"2.0"
	},
	"scene":0,
	"scenes":[
		{
			"name":"Scene",
			"nodes":[
				0,
				8
			]
		}
	],
	"nodes":[
		{
			"mesh":0,
			"name":"bike"
		},
		{
			"name":"Bone",
			"rotation":[
				0.002346570370718837,
				-5.222648815634243e-19,
				-5.222665359246494e-19,
				0.9999972581863403
			],
			"scale":[
				1,
				1.0000001192092896,
				1.0000001192092896
			],
			"translation":[
				-1.3877787807814457e-17,
				7.450580596923828e-08,
				-2.2351741790771484e-08
			]
		},
		{
			"name":"Bone.001",
			"rotation":[
				0.7541321516036987,
				0.0818195566534996,
				0.019291112199425697,
				0.6513203978538513
			],
			"scale":[
				1.000001311302185,
				1.000000238418579,
				1.0000026226043701
			],
			"translation":[
				-0.01218925416469574,
				-0.0014579445123672485,
				-0.002578519284725189
			]
		},
		{
			"name":"Bone.002",
			"rotation":[
				-0.9976943731307983,
				-0.043978501111269,
				-0.04580611735582352,
				0.023950429633259773
			],
			"scale":[
				1.0000001192092896,
				1.0000001192092896,
				1.0000001192092896
			],
			"translation":[
				-0.08487210422754288,
				-0.2706651985645294,
				0.5267598628997803
			]
		},
		{
			"name":"Bone.003",
			"rotation":[
				-0.9576164484024048,
				0.23273417353630066,
				0.16871175169944763,
				0.018491294234991074
			],
			"translation":[
				0.035221464931964874,
				-0.05971367657184601,
				0.544134795665741
			]
		},
		{
			"name":"Bone.004",
			"rotation":[
				-0.010105223394930363,
				-6.954494892852381e-06,
				-0.00022609683219343424,
				0.9999489188194275
			],
			"scale":[
				0.9999999403953552,
				1.0000001192092896,
				1
			],
			"translation":[
				-4.163336342344337e-17,
				0.5883646607398987,
				0.008025377988815308
			]
		},
		{
			"name":"neutral_bone",
			"rotation":[
				-0.7071067690849304,
				0,
				0,
				0.7071067690849304
			]
		},
		{
			"mesh":1,
			"name":"Cube",
			"skin":0
		},
		{
			"children":[
				7,
				1,
				2,
				3,
				4,
				5,
				6
			],
			"name":"Armature",
			"rotation":[
				0.07620193064212799,
				0,
				0,
				0.9970924258232117
			],
			"scale":[
				0.8154654502868652,
				0.9541907906532288,
				0.8154654502868652
			],
			"translation":[
				0.06609410047531128,
				0.4971027672290802,
				-1.3275939226150513
			]
		}
	],
	"animations":[
		{
			"channels":[
				{
					"sampler":0,
					"target":{
						"node":1,
						"path":"translation"
					}
				},
				{
					"sampler":1,
					"target":{
						"node":1,
						"path":"rotation"
					}
				},
				{
					"sampler":2,
					"target":{
						"node":1,
						"path":"scale"
					}
				},
				{
					"sampler":3,
					"target":{
						"node":2,
						"path":"translation"
					}
				},
				{
					"sampler":4,
					"target":{
						"node":2,
						"path":"rotation"
					}
				},
				{
					"sampler":5,
					"target":{
						"node":2,
						"path":"scale"
					}
				},
				{
					"sampler":6,
					"target":{
						"node":3,
						"path":"translation"
					}
				},
				{
					"sampler":7,
					"target":{
						"node":3,
						"path":"rotation"
					}
				},
				{
					"sampler":8,
					"target":{
						"node":3,
						"path":"scale"
					}
				},
				{
					"sampler":9,
					"target":{
						"node":4,
						"path":"translation"
					}
				},
				{
					"sampler":10,
					"target":{
						"node":4,
						"path":"rotation"
					}
				},
				{
					"sampler":11,
					"target":{
						"node":4,
						"path":"scale"
					}
				},
				{
					"sampler":12,
					"target":{
						"node":5,
						"path":"translation"
					}
				},
				{
					"sampler":13,
					"target":{
						"node":5,
						"path":"rotation"
					}
				},
				{
					"sampler":14,
					"target":{
						"node":5,
						"path":"scale"
					}
				}
			],
			"name":"floaty",
			"samplers":[
				{
					"input":11,
					"interpolation":"LINEAR",
					"output":12
				},
				{
					"input":11,
					"interpolation":"LINEAR",
					"output":13
				},
				{
					"input":11,
					"interpolation":"LINEAR",
					"output":14
				},
				{
					"input":11,
					"interpolation":"LINEAR",
					"output":15
				},
				{
					"input":11,
					"interpolation":"LINEAR",
					"output":16
				},
				{
					"input":11,
					"interpolation":"LINEAR",
					"output":17
				},
				{
					"input":11,
					"interpolation":"LINEAR",
					"output":18
				},
				{
					"input":11,
					"interpolation":"LINEAR",
					"output":19
				},
				{
					"input":11,
					"interpolation":"LINEAR",
					"output":20
				},
				{
					"input":11,
					"interpolation":"LINEAR",
					"output":21
				},
				{
					"input":11,
					"interpolation":"LINEAR",
					"output":22
				},
				{
					"input":11,
					"interpolation":"LINEAR",
					"output":23
				},
				{
					"input":11,
					"interpolation":"LINEAR",
					"output":24
				},
				{
					"input":11,
					"interpolation":"LINEAR",
					"output":25
				},
				{
					"input":11,
					"interpolation":"LINEAR",
					"output":26
				}
			]
		},
		{
			"channels":[
				{
					"sampler":0,
					"target":{
						"node":1,
						"path":"translation"
					}
				},
				{
					"sampler":1,
					"target":{
						"node":1,
						"path":"rotation"
					}
				},
				{
					"sampler":2,
					"target":{
						"node":1,
						"path":"scale"
					}
				},
				{
					"sampler":3,
					"target":{
						"node":2,
						"path":"translation"
					}
				},
				{
					"sampler":4,
					"target":{
						"node":2,
						"path":"rotation"
					}
				},
				{
					"sampler":5,
					"target":{
						"node":2,
						"path":"scale"
					}
				},
				{
					"sampler":6,
					"target":{
						"node":3,
						"path":"translation"
					}
				},
				{
					"sampler":7,
					"target":{
						"node":3,
						"path":"rotation"
					}
				},
				{
					"sampler":8,
					"target":{
						"node":3,
						"path":"scale"
					}
				},
				{
					"sampler":9,
					"target":{
						"node":4,
						"path":"translation"
					}
				},
				{
					"sampler":10,
					"target":{
						"node":4,
						"path":"rotation"
					}
				},
				{
					"sampler":11,
					"target":{
						"node":4,
						"path":"scale"
					}
				},
				{
					"sampler":12,
					"target":{
						"node":5,
						"path":"translation"
					}
				},
				{
					"sampler":13,
					"target":{
						"node":5,
						"path":"rotation"
					}
				},
				{
					"sampler":14,
					"target":{
						"node":5,
						"path":"scale"
					}
				}
			],
			"name":"happy",
			"samplers":[
				{
					"input":27,
					"interpolation":"LINEAR",
					"output":28
				},
				{
					"input":27,
					"interpolation":"LINEAR",
					"output":29
				},
				{
					"input":30,
					"interpolation":"STEP",
					"output":31
				},
				{
					"input":27,
					"interpolation":"LINEAR",
					"output":32
				},
				{
					"input":27,
					"interpolation":"LINEAR",
					"output":33
				},
				{
					"input":30,
					"interpolation":"STEP",
					"output":34
				},
				{
					"input":27,
					"interpolation":"LINEAR",
					"output":35
				},
				{
					"input":27,
					"interpolation":"LINEAR",
					"output":36
				},
				{
					"input":30,
					"interpolation":"STEP",
					"output":37
				},
				{
					"input":27,
					"interpolation":"LINEAR",
					"output":38
				},
				{
					"input":27,
					"interpolation":"LINEAR",
					"output":39
				},
				{
					"input":30,
					"interpolation":"STEP",
					"output":40
				},
				{
					"input":27,
					"interpolation":"LINEAR",
					"output":41
				},
				{
					"input":27,
					"interpolation":"LINEAR",
					"output":42
				},
				{
					"input":30,
					"interpolation":"STEP",
					"output":43
				}
			]
		},
		{
			"channels":[
				{
					"sampler":0,
					"target":{
						"node":1,
						"path":"translation"
					}
				},
				{
					"sampler":1,
					"target":{
						"node":1,
						"path":"rotation"
					}
				},
				{
					"sampler":2,
					"target":{
						"node":1,
						"path":"scale"
					}
				},
				{
					"sampler":3,
					"target":{
						"node":2,
						"path":"translation"
					}
				},
				{
					"sampler":4,
					"target":{
						"node":2,
						"path":"rotation"
					}
				},
				{
					"sampler":5,
					"target":{
						"node":2,
						"path":"scale"
					}
				},
				{
					"sampler":6,
					"target":{
						"node":3,
						"path":"translation"
					}
				},
				{
					"sampler":7,
					"target":{
						"node":3,
						"path":"rotation"
					}
				},
				{
					"sampler":8,
					"target":{
						"node":3,
						"path":"scale"
					}
				},
				{
					"sampler":9,
					"target":{
						"node":4,
						"path":"translation"
					}
				},
				{
					"sampler":10,
					"target":{
						"node":4,
						"path":"rotation"
					}
				},
				{
					"sampler":11,
					"target":{
						"node":4,
						"path":"scale"
					}
				},
				{
					"sampler":12,
					"target":{
						"node":5,
						"path":"translation"
					}
				},
				{
					"sampler":13,
					"target":{
						"node":5,
						"path":"rotation"
					}
				},
				{
					"sampler":14,
					"target":{
						"node":5,
						"path":"scale"
					}
				}
			],
			"name":"loser",
			"samplers":[
				{
					"input":44,
					"interpolation":"STEP",
					"output":45
				},
				{
					"input":46,
					"interpolation":"LINEAR",
					"output":47
				},
				{
					"input":44,
					"interpolation":"STEP",
					"output":48
				},
				{
					"input":44,
					"interpolation":"STEP",
					"output":49
				},
				{
					"input":44,
					"interpolation":"STEP",
					"output":50
				},
				{
					"input":44,
					"interpolation":"STEP",
					"output":51
				},
				{
					"input":44,
					"interpolation":"STEP",
					"output":52
				},
				{
					"input":44,
					"interpolation":"STEP",
					"output":53
				},
				{
					"input":44,
					"interpolation":"STEP",
					"output":54
				},
				{
					"input":44,
					"interpolation":"STEP",
					"output":55
				},
				{
					"input":44,
					"interpolation":"STEP",
					"output":56
				},
				{
					"input":44,
					"interpolation":"STEP",
					"output":57
				},
				{
					"input":44,
					"interpolation":"STEP",
					"output":58
				},
				{
					"input":46,
					"interpolation":"LINEAR",
					"output":59
				},
				{
					"input":44,
					"interpolation":"STEP",
					"output":60
				}
			]
		}
	],
	"materials":[
		{
			"doubleSided":true,
			"name":"Material",
			"pbrMetallicRoughness":{
				"baseColorTexture":{
					"index":0
				},
				"metallicFactor":0,
				"roughnessFactor":0.5
			}
		},
		{
			"doubleSided":true,
			"name":"Material.001",
			"pbrMetallicRoughness":{
				"baseColorTexture":{
					"index":1
				},
				"metallicFactor":0,
				"roughnessFactor":0.5
			}
		}
	],
	"meshes":[
		{
			"name":"Circle.002",
			"primitives":[
				{
					"attributes":{
						"POSITION":0,
						"NORMAL":1,
						"TEXCOORD_0":2
					},
					"indices":3,
					"material":0
				}
			]
		},
		{
			"name":"Cube",
			"primitives":[
				{
					"attributes":{
						"POSITION":4,
						"NORMAL":5,
						"TEXCOORD_0":6,
						"JOINTS_0":7,
						"WEIGHTS_0":8
					},
					"indices":9,
					"material":1
				}
			]
		}
	],
	"textures":[
		{
			"sampler":0,
			"source":0
		},
		{
			"sampler":0,
			"source":1
		}
	],
	"images":[
		{
			"mimeType":"image/png",
			"name":"Tron",
			"uri":"Tron.png"
		},
		{
			"mimeType":"image/jpeg",
			"name":"pinknoodleman",
			"uri":"pinknoodleman.jpg"
		}
	],
	"skins":[
		{
			"inverseBindMatrices":10,
			"joints":[
				1,
				2,
				3,
				4,
				5,
				6
			],
			"name":"Armature"
		}
	],
	"accessors":[
		{
			"bufferView":0,
			"componentType":5126,
			"count":18840,
			"max":[
				0.5354849696159363,
				0.7855461239814758,
				1.2262074947357178
			],
			"min":[
				-0.3864327669143677,
				-1.5647544860839844,
				-3.1257638931274414
			],
			"type":"VEC3"
		},
		{
			"bufferView":1,
			"componentType":5126,
			"count":18840,
			"type":"VEC3"
		},
		{
			"bufferView":2,
			"componentType":5126,
			"count":18840,
			"type":"VEC2"
		},
		{
			"bufferView":3,
			"componentType":5123,
			"count":28302,
			"type":"SCALAR"
		},
		{
			"bufferView":4,
			"componentType":5126,
			"count":12288,
			"max":[
				0.24322611093521118,
				1.6238696575164795,
				-0.8871679306030273
			],
			"min":[
				-0.14648668467998505,
				-0.17143025994300842,
				-1.3575363159179688
			],
			"type":"VEC3"
		},
		{
			"bufferView":5,
			"componentType":5126,
			"count":12288,
			"type":"VEC3"
		},
		{
			"bufferView":6,
			"componentType":5126,
			"count":12288,
			"type":"VEC2"
		},
		{
			"bufferView":7,
			"componentType":5121,
			"count":12288,
			"type":"VEC4"
		},
		{
			"bufferView":8,
			"componentType":5126,
			"count":12288,
			"type":"VEC4"
		},
		{
			"bufferView":9,
			"componentType":5123,
			"count":18048,
			"type":"SCALAR"
		},
		{
			"bufferView":10,
			"componentType":5126,
			"count":6,
			"type":"MAT4"
		},
		{
			"bufferView":11,
			"componentType":5126,
			"count":81,
			"max":[
				3.3333333333333335
			],
			"min":[
				0
			],
			"type":"SCALAR"
		},
		{
			"bufferView":12,
			"componentType":5126,
			"count":81,
			"type":"VEC3"
		},
		{
			"bufferView":13,
			"componentType":5126,
			"count":81,
			"type":"VEC4"
		},
		{
			"bufferView":14,
			"componentType":5126,
			"count":81,
			"type":"VEC3"
		},
		{
			"bufferView":15,
			"componentType":5126,
			"count":81,
			"type":"VEC3"
		},
		{
			"bufferView":16,
			"componentType":5126,
			"count":81,
			"type":"VEC4"
		},
		{
			"bufferView":17,
			"componentType":5126,
			"count":81,
			"type":"VEC3"
		},
		{
			"bufferView":18,
			"componentType":5126,
			"count":81,
			"type":"VEC3"
		},
		{
			"bufferView":19,
			"componentType":5126,
			"count":81,
			"type":"VEC4"
		},
		{
			"bufferView":20,
			"componentType":5126,
			"count":81,
			"type":"VEC3"
		},
		{
			"bufferView":21,
			"componentType":5126,
			"count":81,
			"type":"VEC3"
		},
		{
			"bufferView":22,
			"componentType":5126,
			"count":81,
			"type":"VEC4"
		},
		{
			"bufferView":23,
			"componentType":5126,
			"count":81,
			"type":"VEC3"
		},
		{
			"bufferView":24,
			"componentType":5126,
			"count":81,
			"type":"VEC3"
		},
		{
			"bufferView":25,
			"componentType":5126,
			"count":81,
			"type":"VEC4"
		},
		{
			"bufferView":26,
			"componentType":5126,
			"count":81,
			"type":"VEC3"
		},
		{
			"bufferView":27,
			"componentType":5126,
			"count":71,
			"max":[
				2.9166666666666665
			],
			"min":[
				0
			],
			"type":"SCALAR"
		},
		{
			"bufferView":28,
			"componentType":5126,
			"count":71,
			"type":"VEC3"
		},
		{
			"bufferView":29,
			"componentType":5126,
			"count":71,
			"type":"VEC4"
		},
		{
			"bufferView":30,
			"componentType":5126,
			"count":2,
			"max":[
				2.9166666666666665
			],
			"min":[
				0
			],
			"type":"SCALAR"
		},
		{
			"bufferView":31,
			"componentType":5126,
			"count":2,
			"type":"VEC3"
		},
		{
			"bufferView":32,
			"componentType":5126,
			"count":71,
			"type":"VEC3"
		},
		{
			"bufferView":33,
			"componentType":5126,
			"count":71,
			"type":"VEC4"
		},
		{
			"bufferView":34,
			"componentType":5126,
			"count":2,
			"type":"VEC3"
		},
		{
			"bufferView":35,
			"componentType":5126,
			"count":71,
			"type":"VEC3"
		},
		{
			"bufferView":36,
			"componentType":5126,
			"count":71,
			"type":"VEC4"
		},
		{
			"bufferView":37,
			"componentType":5126,
			"count":2,
			"type":"VEC3"
		},
		{
			"bufferView":38,
			"componentType":5126,
			"count":71,
			"type":"VEC3"
		},
		{
			"bufferView":39,
			"componentType":5126,
			"count":71,
			"type":"VEC4"
		},
		{
			"bufferView":40,
			"componentType":5126,
			"count":2,
			"type":"VEC3"
		},
		{
			"bufferView":41,
			"componentType":5126,
			"count":71,
			"type":"VEC3"
		},
		{
			"bufferView":42,
			"componentType":5126,
			"count":71,
			"type":"VEC4"
		},
		{
			"bufferView":43,
			"componentType":5126,
			"count":2,
			"type":"VEC3"
		},
		{
			"bufferView":44,
			"componentType":5126,
			"count":2,
			"max":[
				1.4583333333333333
			],
			"min":[
				0
			],
			"type":"SCALAR"
		},
		{
			"bufferView":45,
			"componentType":5126,
			"count":2,
			"type":"VEC3"
		},
		{
			"bufferView":46,
			"componentType":5126,
			"count":36,
			"max":[
				1.4583333333333333
			],
			"min":[
				0
			],
			"type":"SCALAR"
		},
		{
			"bufferView":47,
			"componentType":5126,
			"count":36,
			"type":"VEC4"
		},
		{
			"bufferView":48,
			"componentType":5126,
			"count":2,
			"type":"VEC3"
		},
		{
			"bufferView":49,
			"componentType":5126,
			"count":2,
			"type":"VEC3"
		},
		{
			"bufferView":50,
			"componentType":5126,
			"count":2,
			"type":"VEC4"
		},
		{
			"bufferView":51,
			"componentType":5126,
			"count":2,
			"type":"VEC3"
		},
		{
			"bufferView":52,
			"componentType":5126,
			"count":2,
			"type":"VEC3"
		},
		{
			"bufferView":53,
			"componentType":5126,
			"count":2,
			"type":"VEC4"
		},
		{
			"bufferView":54,
			"componentType":5126,
			"count":2,
			"type":"VEC3"
		},
		{
			"bufferView":55,
			"componentType":5126,
			"count":2,
			"type":"VEC3"
		},
		{
			"bufferView":56,
			"componentType":5126,
			"count":2,
			"type":"VEC4"
		},
		{
			"bufferView":57,
			"componentType":5126,
			"count":2,
			"type":"VEC3"
		},
		{
			"bufferView":58,
			"componentType":5126,
			"count":2,
			"type":"VEC3"
		},
		{
			"bufferView":59,
			"componentType":5126,
			"count":36,
			"type":"VEC4"
		},
		{
			"bufferView":60,
			"componentType":5126,
			"count":2,
			"type":"VEC3"
		}
	],
	"bufferViews":[
		{
			"buffer":0,
			"byteLength":226080,
			"byteOffset":0,
			"target":34962
		},
		{
			"buffer":0,
			"byteLength":226080,
			"byteOffset":226080,
			"target":34962
		},
		{
			"buffer":0,
			"byteLength":150720,
			"byteOffset":452160,
			"target":34962
		},
		{
			"buffer":0,
			"byteLength":56604,
			"byteOffset":602880,
			"target":34963
		},
		{
			"buffer":0,
			"byteLength":147456,
			"byteOffset":659484,
			"target":34962
		},
		{
			"buffer":0,
			"byteLength":147456,
			"byteOffset":806940,
			"target":34962
		},
		{
			"buffer":0,
			"byteLength":98304,
			"byteOffset":954396,
			"target":34962
		},
		{
			"buffer":0,
			"byteLength":49152,
			"byteOffset":1052700,
			"target":34962
		},
		{
			"buffer":0,
			"byteLength":196608,
			"byteOffset":1101852,
			"target":34962
		},
		{
			"buffer":0,
			"byteLength":36096,
			"byteOffset":1298460,
			"target":34963
		},
		{
			"buffer":0,
			"byteLength":384,
			"byteOffset":1334556
		},
		{
			"buffer":0,
			"byteLength":324,
			"byteOffset":1334940
		},
		{
			"buffer":0,
			"byteLength":972,
			"byteOffset":1335264
		},
		{
			"buffer":0,
			"byteLength":1296,
			"byteOffset":1336236
		},
		{
			"buffer":0,
			"byteLength":972,
			"byteOffset":1337532
		},
		{
			"buffer":0,
			"byteLength":972,
			"byteOffset":1338504
		},
		{
			"buffer":0,
			"byteLength":1296,
			"byteOffset":1339476
		},
		{
			"buffer":0,
			"byteLength":972,
			"byteOffset":1340772
		},
		{
			"buffer":0,
			"byteLength":972,
			"byteOffset":1341744
		},
		{
			"buffer":0,
			"byteLength":1296,
			"byteOffset":1342716
		},
		{
			"buffer":0,
			"byteLength":972,
			"byteOffset":1344012
		},
		{
			"buffer":0,
			"byteLength":972,
			"byteOffset":1344984
		},
		{
			"buffer":0,
			"byteLength":1296,
			"byteOffset":1345956
		},
		{
			"buffer":0,
			"byteLength":972,
			"byteOffset":1347252
		},
		{
			"buffer":0,
			"byteLength":972,
			"byteOffset":1348224
		},
		{
			"buffer":0,
			"byteLength":1296,
			"byteOffset":1349196
		},
		{
			"buffer":0,
			"byteLength":972,
			"byteOffset":1350492
		},
		{
			"buffer":0,
			"byteLength":284,
			"byteOffset":1351464
		},
		{
			"buffer":0,
			"byteLength":852,
			"byteOffset":1351748
		},
		{
			"buffer":0,
			"byteLength":1136,
			"byteOffset":1352600
		},
		{
			"buffer":0,
			"byteLength":8,
			"byteOffset":1353736
		},
		{
			"buffer":0,
			"byteLength":24,
			"byteOffset":1353744
		},
		{
			"buffer":0,
			"byteLength":852,
			"byteOffset":1353768
		},
		{
			"buffer":0,
			"byteLength":1136,
			"byteOffset":1354620
		},
		{
			"buffer":0,
			"byteLength":24,
			"byteOffset":1355756
		},
		{
			"buffer":0,
			"byteLength":852,
			"byteOffset":1355780
		},
		{
			"buffer":0,
			"byteLength":1136,
			"byteOffset":1356632
		},
		{
			"buffer":0,
			"byteLength":24,
			"byteOffset":1357768
		},
		{
			"buffer":0,
			"byteLength":852,
			"byteOffset":1357792
		},
		{
			"buffer":0,
			"byteLength":1136,
			"byteOffset":1358644
		},
		{
			"buffer":0,
			"byteLength":24,
			"byteOffset":1359780
		},
		{
			"buffer":0,
			"byteLength":852,
			"byteOffset":1359804
		},
		{
			"buffer":0,
			"byteLength":1136,
			"byteOffset":1360656
		},
		{
			"buffer":0,
			"byteLength":24,
			"byteOffset":1361792
		},
		{
			"buffer":0,
			"byteLength":8,
			"byteOffset":1361816
		},
		{
			"buffer":0,
			"byteLength":24,
			"byteOffset":1361824
		},
		{
			"buffer":0,
			"byteLength":144,
			"byteOffset":1361848
		},
		{
			"buffer":0,
			"byteLength":576,
			"byteOffset":1361992
		},
		{
			"buffer":0,
			"byteLength":24,
			"byteOffset":1362568
		},
		{
			"buffer":0,
			"byteLength":24,
			"byteOffset":1362592
		},
		{
			"buffer":0,
			"byteLength":32,
			"byteOffset":1362616
		},
		{
			"buffer":0,
			"byteLength":24,
			"byteOffset":1362648
		},
		{
			"buffer":0,
			"byteLength":24,
			"byteOffset":1362672
		},
		{
			"buffer":0,
			"byteLength":32,
			"byteOffset":1362696
		},
		{
			"buffer":0,
			"byteLength":24,
			"byteOffset":1362728
		},
		{
			"buffer":0,
			"byteLength":24,
			"byteOffset":1362752
		},
		{
			"buffer":0,
			"byteLength":32,
			"byteOffset":1362776
		},
		{
			"buffer":0,
			"byteLength":24,
			"byteOffset":1362808
		},
		{
			"buffer":0,
			"byteLength":24,
			"byteOffset":1362832
		},
		{
			"buffer":0,
			"byteLength":576,
			"byteOffset":1362856
		},
		{
			"buffer":0,
			"byteLength":24,
			"byteOffset":1363432
		}
	],
	"samplers":[
		{
			"magFilter":9729,
			"minFilter":9987
		}
	],
	"buffers":[
		{
			"byteLength":1363456,
			"uri":"aliencycle_separate.bin"
		}
	]
}
