{
	"asset":{
		"generator":"Khronos glTF Blender I/O v3.6.27",
		"version":"2.0"
	},
	"scene":0,
	"scenes":[
		{
			"name":"Scene",
			"nodes":[
				0,
				1,
				2,
				3,
				4,
				5
			]
		}
	],
	"nodes":[
		{
			"mesh":0,
			"name":"Cube"
		},
		{
			"mesh":1,
			"name":"Sphere"
		},
		{
			"mesh":2,
			"name":"Sphere.002"
		},
		{
			"mesh":3,
			"name":"Sphere.003"
		},
		{
			"mesh":4,
			"name":"Sphere.001"
		},
		{
			"mesh":5,
			"name":"Torus"
		}
	],
	"materials":[
		{
			"doubleSided":true,
			"name":"Material.001",
			"pbrMetallicRoughness":{
				"baseColorTexture":{
					"index":0
				},
				"metallicFactor":0,
				"roughnessFactor":0.5
			}
		},
		{
			"doubleSided":true,
			"name":"Material.001",
			"pbrMetallicRoughness":{
				"baseColorTexture":{
					"index":1
				},
				"metallicFactor":0,
				"roughnessFactor":0.5
			}
		}
	],
	"meshes":[
		{
			"name":"Cube",
			"primitives":[
				{
					"attributes":{
						"POSITION":0,
						"NORMAL":1,
						"TEXCOORD_0":2
					},
					"indices":3,
					"material":0
				}
			]
		},
		{
			"name":"Sphere",
			"primitives":[
				{
					"attributes":{
						"POSITION":4,
						"NORMAL":5,
						"TEXCOORD_0":6
					},
					"indices":7,
					"material":1
				}
			]
		},
		{
			"name":"Sphere.002",
			"primitives":[
				{
					"attributes":{
						"POSITION":8,
						"NORMAL":9,
						"TEXCOORD_0":10
					},
					"indices":11,
					"material":1
				}
			]
		},
		{
			"name":"Sphere.003",
			"primitives":[
				{
					"attributes":{
						"POSITION":12,
						"NORMAL":13,
						"TEXCOORD_0":14
					},
					"indices":15,
					"material":1
				}
			]
		},
		{
			"name":"Sphere.004",
			"primitives":[
				{
					"attributes":{
						"POSITION":16,
						"NORMAL":17,
						"TEXCOORD_0":18
					},
					"indices":19,
					"material":1
				}
			]
		},
		{
			"name":"Torus",
			"primitives":[
				{
					"attributes":{
						"POSITION":20,
						"NORMAL":21,
						"TEXCOORD_0":22
					},
					"indices":23,
					"material":0
				}
			]
		}
	],
	"textures":[
		{
			"sampler":0,
			"source":0
		},
		{
			"sampler":0,
			"source":0
		}
	],
	"images":[
		{
			"mimeType":"image/jpeg",
			"name":"pinknoodleman",
			"uri":"pinknoodleman.jpg"
		}
	],
	"accessors":[
		{
			"bufferView":0,
			"componentType":5126,
			"count":2048,
			"max":[
				0.5593695640563965,
				3.0463719367980957,
				3.9134085178375244
			],
			"min":[
				-0.7178637385368347,
				-2.691913366317749,
				2.32761287689209
			],
			"type":"VEC3"
		},
		{
			"bufferView":1,
			"componentType":5126,
			"count":2048,
			"type":"VEC3"
		},
		{
			"bufferView":2,
			"componentType":5126,
			"count":2048,
			"type":"VEC2"
		},
		{
			"bufferView":3,
			"componentType":5123,
			"count":3072,
			"type":"SCALAR"
		},
		{
			"bufferView":4,
			"componentType":5126,
			"count":31744,
			"max":[
				-0.19563016295433044,
				2.1436898708343506,
				3.8294477462768555
			],
			"min":[
				-0.319060355424881,
				2.0202603340148926,
				3.7535908222198486
			],
			"type":"VEC3"
		},
		{
			"bufferView":5,
			"componentType":5126,
			"count":31744,
			"type":"VEC3"
		},
		{
			"bufferView":6,
			"componentType":5126,
			"count":31744,
			"type":"VEC2"
		},
		{
			"bufferView":7,
			"componentType":5123,
			"count":47616,
			"type":"SCALAR"
		},
		{
			"bufferView":8,
			"componentType":5126,
			"count":31744,
			"max":[
				-0.23301048576831818,
				2.097959280014038,
				3.7641823291778564
			],
			"min":[
				-0.2793765664100647,
				2.0701749324798584,
				3.749274492263794
			],
			"type":"VEC3"
		},
		{
			"bufferView":9,
			"componentType":5126,
			"count":31744,
			"type":"VEC3"
		},
		{
			"bufferView":10,
			"componentType":5126,
			"count":31744,
			"type":"VEC2"
		},
		{
			"bufferView":11,
			"componentType":5123,
			"count":47616,
			"type":"SCALAR"
		},
		{
			"bufferView":12,
			"componentType":5126,
			"count":31744,
			"max":[
				0.177551731467247,
				2.097959280014038,
				3.7641823291778564
			],
			"min":[
				0.1311856508255005,
				2.0701749324798584,
				3.749274492263794
			],
			"type":"VEC3"
		},
		{
			"bufferView":13,
			"componentType":5126,
			"count":31744,
			"type":"VEC3"
		},
		{
			"bufferView":14,
			"componentType":5126,
			"count":31744,
			"type":"VEC2"
		},
		{
			"bufferView":15,
			"componentType":5123,
			"count":47616,
			"type":"SCALAR"
		},
		{
			"bufferView":16,
			"componentType":5126,
			"count":31744,
			"max":[
				0.21597057580947876,
				2.1436898708343506,
				3.8294477462768555
			],
			"min":[
				0.09254038333892822,
				2.0202603340148926,
				3.7535908222198486
			],
			"type":"VEC3"
		},
		{
			"bufferView":17,
			"componentType":5126,
			"count":31744,
			"type":"VEC3"
		},
		{
			"bufferView":18,
			"componentType":5126,
			"count":31744,
			"type":"VEC2"
		},
		{
			"bufferView":19,
			"componentType":5123,
			"count":47616,
			"type":"SCALAR"
		},
		{
			"bufferView":20,
			"componentType":5126,
			"count":2304,
			"max":[
				0.12040957808494568,
				1.6467680931091309,
				3.7998507022857666
			],
			"min":[
				-0.21563249826431274,
				1.4838716983795166,
				3.7524845600128174
			],
			"type":"VEC3"
		},
		{
			"bufferView":21,
			"componentType":5126,
			"count":2304,
			"type":"VEC3"
		},
		{
			"bufferView":22,
			"componentType":5126,
			"count":2304,
			"type":"VEC2"
		},
		{
			"bufferView":23,
			"componentType":5123,
			"count":3456,
			"type":"SCALAR"
		}
	],
	"bufferViews":[
		{
			"buffer":0,
			"byteLength":24576,
			"byteOffset":0,
			"target":34962
		},
		{
			"buffer":0,
			"byteLength":24576,
			"byteOffset":24576,
			"target":34962
		},
		{
			"buffer":0,
			"byteLength":16384,
			"byteOffset":49152,
			"target":34962
		},
		{
			"buffer":0,
			"byteLength":6144,
			"byteOffset":65536,
			"target":34963
		},
		{
			"buffer":0,
			"byteLength":380928,
			"byteOffset":71680,
			"target":34962
		},
		{
			"buffer":0,
			"byteLength":380928,
			"byteOffset":452608,
			"target":34962
		},
		{
			"buffer":0,
			"byteLength":253952,
			"byteOffset":833536,
			"target":34962
		},
		{
			"buffer":0,
			"byteLength":95232,
			"byteOffset":1087488,
			"target":34963
		},
		{
			"buffer":0,
			"byteLength":380928,
			"byteOffset":1182720,
			"target":34962
		},
		{
			"buffer":0,
			"byteLength":380928,
			"byteOffset":1563648,
			"target":34962
		},
		{
			"buffer":0,
			"byteLength":253952,
			"byteOffset":1944576,
			"target":34962
		},
		{
			"buffer":0,
			"byteLength":95232,
			"byteOffset":2198528,
			"target":34963
		},
		{
			"buffer":0,
			"byteLength":380928,
			"byteOffset":2293760,
			"target":34962
		},
		{
			"buffer":0,
			"byteLength":380928,
			"byteOffset":2674688,
			"target":34962
		},
		{
			"buffer":0,
			"byteLength":253952,
			"byteOffset":3055616,
			"target":34962
		},
		{
			"buffer":0,
			"byteLength":95232,
			"byteOffset":3309568,
			"target":34963
		},
		{
			"buffer":0,
			"byteLength":380928,
			"byteOffset":3404800,
			"target":34962
		},
		{
			"buffer":0,
			"byteLength":380928,
			"byteOffset":3785728,
			"target":34962
		},
		{
			"buffer":0,
			"byteLength":253952,
			"byteOffset":4166656,
			"target":34962
		},
		{
			"buffer":0,
			"byteLength":95232,
			"byteOffset":4420608,
			"target":34963
		},
		{
			"buffer":0,
			"byteLength":27648,
			"byteOffset":4515840,
			"target":34962
		},
		{
			"buffer":0,
			"byteLength":27648,
			"byteOffset":4543488,
			"target":34962
		},
		{
			"buffer":0,
			"byteLength":18432,
			"byteOffset":4571136,
			"target":34962
		},
		{
			"buffer":0,
			"byteLength":6912,
			"byteOffset":4589568,
			"target":34963
		}
	],
	"samplers":[
		{
			"magFilter":9729,
			"minFilter":9987
		}
	],
	"buffers":[
		{
			"byteLength":4596480,
			"uri":"aliendriver2_separate.bin"
		}
	]
}
