{
	"asset":{
		"generator":"Khronos glTF Blender I/O v3.6.27",
		"version":"2.0"
	},
	"scene":0,
	"scenes":[
		{
			"name":"Scene",
			"nodes":[
				0,
				1,
				2,
				3,
				4,
				5,
				6,
				7,
				8,
				9
			]
		}
	],
	"nodes":[
		{
			"mesh":0,
			"name":"head"
		},
		{
			"mesh":1,
			"name":"eyeconnector"
		},
		{
			"mesh":2,
			"name":"eyeconnector1"
		},
		{
			"mesh":3,
			"name":"eyeconnector1.001"
		},
		{
			"name":"eyeconnector1.002"
		},
		{
			"name":"eyeconnector1.003"
		},
		{
			"mesh":4,
			"name":"eyeconnector.001"
		},
		{
			"name":"eyeconnector.002"
		},
		{
			"mesh":5,
			"name":"eyeconnector.003"
		},
		{
			"mesh":6,
			"name":"eyeconnector1.004"
		}
	],
	"materials":[
		{
			"doubleSided":true,
			"name":"Material.001",
			"pbrMetallicRoughness":{
				"baseColorTexture":{
					"index":0
				},
				"metallicFactor":0,
				"roughnessFactor":0.5
			}
		},
		{
			"doubleSided":true,
			"name":"Material.001",
			"pbrMetallicRoughness":{
				"baseColorTexture":{
					"index":1
				},
				"metallicFactor":0,
				"roughnessFactor":0.5
			}
		}
	],
	"meshes":[
		{
			"name":"Sphere",
			"primitives":[
				{
					"attributes":{
						"POSITION":0,
						"NORMAL":1,
						"TEXCOORD_0":2
					},
					"indices":3,
					"material":0
				}
			]
		},
		{
			"name":"Sphere.001",
			"primitives":[
				{
					"attributes":{
						"POSITION":4,
						"NORMAL":5,
						"TEXCOORD_0":6
					},
					"indices":7,
					"material":1
				}
			]
		},
		{
			"name":"Sphere.002",
			"primitives":[
				{
					"attributes":{
						"POSITION":8,
						"NORMAL":9,
						"TEXCOORD_0":10
					},
					"indices":7,
					"material":1
				}
			]
		},
		{
			"name":"Sphere.003",
			"primitives":[
				{
					"attributes":{
						"POSITION":11,
						"NORMAL":12,
						"TEXCOORD_0":13
					},
					"indices":14,
					"material":1
				}
			]
		},
		{
			"name":"Sphere.006",
			"primitives":[
				{
					"attributes":{
						"POSITION":15,
						"NORMAL":16,
						"TEXCOORD_0":17
					},
					"indices":18
				}
			]
		},
		{
			"name":"Sphere.008",
			"primitives":[
				{
					"attributes":{
						"POSITION":19,
						"NORMAL":20,
						"TEXCOORD_0":21
					},
					"indices":22,
					"material":1
				}
			]
		},
		{
			"name":"Sphere.009",
			"primitives":[
				{
					"attributes":{
						"POSITION":23,
						"NORMAL":24,
						"TEXCOORD_0":25
					},
					"indices":26,
					"material":1
				}
			]
		}
	],
	"textures":[
		{
			"sampler":0,
			"source":0
		},
		{
			"sampler":0,
			"source":0
		}
	],
	"images":[
		{
			"mimeType":"image/jpeg",
			"name":"alienskin",
			"uri":"alienskin.jpg"
		}
	],
	"accessors":[
		{
			"bufferView":0,
			"componentType":5126,
			"count":31744,
			"max":[
				0.398780882358551,
				0.391696572303772,
				0.42602699995040894
			],
			"min":[
				-0.18965084850788116,
				-0.20684929192066193,
				-0.16631154716014862
			],
			"type":"VEC3"
		},
		{
			"bufferView":1,
			"componentType":5126,
			"count":31744,
			"type":"VEC3"
		},
		{
			"bufferView":2,
			"componentType":5126,
			"count":31744,
			"type":"VEC2"
		},
		{
			"bufferView":3,
			"componentType":5123,
			"count":47616,
			"type":"SCALAR"
		},
		{
			"bufferView":4,
			"componentType":5126,
			"count":128,
			"max":[
				0.047065265476703644,
				0.5196774005889893,
				0.05052529275417328
			],
			"min":[
				-0.051120102405548096,
				0.3238603472709656,
				0.010148532688617706
			],
			"type":"VEC3"
		},
		{
			"bufferView":5,
			"componentType":5126,
			"count":128,
			"type":"VEC3"
		},
		{
			"bufferView":6,
			"componentType":5126,
			"count":128,
			"type":"VEC2"
		},
		{
			"bufferView":7,
			"componentType":5123,
			"count":192,
			"type":"SCALAR"
		},
		{
			"bufferView":8,
			"componentType":5126,
			"count":128,
			"max":[
				0.047065265476703644,
				0.5196774005889893,
				0.23318029940128326
			],
			"min":[
				-0.051120102405548096,
				0.3238603472709656,
				0.1928035318851471
			],
			"type":"VEC3"
		},
		{
			"bufferView":9,
			"componentType":5126,
			"count":128,
			"type":"VEC3"
		},
		{
			"bufferView":10,
			"componentType":5126,
			"count":128,
			"type":"VEC2"
		},
		{
			"bufferView":11,
			"componentType":5126,
			"count":1984,
			"max":[
				0.0006856024265289307,
				0.5525600910186768,
				0.24919374287128448
			],
			"min":[
				-0.06945385038852692,
				0.48242056369781494,
				0.17905424535274506
			],
			"type":"VEC3"
		},
		{
			"bufferView":12,
			"componentType":5126,
			"count":1984,
			"type":"VEC3"
		},
		{
			"bufferView":13,
			"componentType":5126,
			"count":1984,
			"type":"VEC2"
		},
		{
			"bufferView":14,
			"componentType":5123,
			"count":2880,
			"type":"SCALAR"
		},
		{
			"bufferView":15,
			"componentType":5126,
			"count":1984,
			"max":[
				0.0006856024265289307,
				0.5525600910186768,
				0.06566117703914642
			],
			"min":[
				-0.06945385038852692,
				0.48242056369781494,
				-0.004478320479393005
			],
			"type":"VEC3"
		},
		{
			"bufferView":16,
			"componentType":5126,
			"count":1984,
			"type":"VEC3"
		},
		{
			"bufferView":17,
			"componentType":5126,
			"count":1984,
			"type":"VEC2"
		},
		{
			"bufferView":18,
			"componentType":5123,
			"count":2880,
			"type":"SCALAR"
		},
		{
			"bufferView":19,
			"componentType":5126,
			"count":1984,
			"max":[
				-0.049938082695007324,
				0.5351117253303528,
				0.05018862336874008
			],
			"min":[
				-0.07586152851581573,
				0.5046881437301636,
				0.012689359486103058
			],
			"type":"VEC3"
		},
		{
			"bufferView":20,
			"componentType":5126,
			"count":1984,
			"type":"VEC3"
		},
		{
			"bufferView":21,
			"componentType":5126,
			"count":1984,
			"type":"VEC2"
		},
		{
			"bufferView":22,
			"componentType":5123,
			"count":2880,
			"type":"SCALAR"
		},
		{
			"bufferView":23,
			"componentType":5126,
			"count":1984,
			"max":[
				-0.0499006062746048,
				0.5351117253303528,
				0.23134185373783112
			],
			"min":[
				-0.0774257630109787,
				0.5046881437301636,
				0.19430944323539734
			],
			"type":"VEC3"
		},
		{
			"bufferView":24,
			"componentType":5126,
			"count":1984,
			"type":"VEC3"
		},
		{
			"bufferView":25,
			"componentType":5126,
			"count":1984,
			"type":"VEC2"
		},
		{
			"bufferView":26,
			"componentType":5123,
			"count":2880,
			"type":"SCALAR"
		}
	],
	"bufferViews":[
		{
			"buffer":0,
			"byteLength":380928,
			"byteOffset":0,
			"target":34962
		},
		{
			"buffer":0,
			"byteLength":380928,
			"byteOffset":380928,
			"target":34962
		},
		{
			"buffer":0,
			"byteLength":253952,
			"byteOffset":761856,
			"target":34962
		},
		{
			"buffer":0,
			"byteLength":95232,
			"byteOffset":1015808,
			"target":34963
		},
		{
			"buffer":0,
			"byteLength":1536,
			"byteOffset":1111040,
			"target":34962
		},
		{
			"buffer":0,
			"byteLength":1536,
			"byteOffset":1112576,
			"target":34962
		},
		{
			"buffer":0,
			"byteLength":1024,
			"byteOffset":1114112,
			"target":34962
		},
		{
			"buffer":0,
			"byteLength":384,
			"byteOffset":1115136,
			"target":34963
		},
		{
			"buffer":0,
			"byteLength":1536,
			"byteOffset":1115520,
			"target":34962
		},
		{
			"buffer":0,
			"byteLength":1536,
			"byteOffset":1117056,
			"target":34962
		},
		{
			"buffer":0,
			"byteLength":1024,
			"byteOffset":1118592,
			"target":34962
		},
		{
			"buffer":0,
			"byteLength":23808,
			"byteOffset":1119616,
			"target":34962
		},
		{
			"buffer":0,
			"byteLength":23808,
			"byteOffset":1143424,
			"target":34962
		},
		{
			"buffer":0,
			"byteLength":15872,
			"byteOffset":1167232,
			"target":34962
		},
		{
			"buffer":0,
			"byteLength":5760,
			"byteOffset":1183104,
			"target":34963
		},
		{
			"buffer":0,
			"byteLength":23808,
			"byteOffset":1188864,
			"target":34962
		},
		{
			"buffer":0,
			"byteLength":23808,
			"byteOffset":1212672,
			"target":34962
		},
		{
			"buffer":0,
			"byteLength":15872,
			"byteOffset":1236480,
			"target":34962
		},
		{
			"buffer":0,
			"byteLength":5760,
			"byteOffset":1252352,
			"target":34963
		},
		{
			"buffer":0,
			"byteLength":23808,
			"byteOffset":1258112,
			"target":34962
		},
		{
			"buffer":0,
			"byteLength":23808,
			"byteOffset":1281920,
			"target":34962
		},
		{
			"buffer":0,
			"byteLength":15872,
			"byteOffset":1305728,
			"target":34962
		},
		{
			"buffer":0,
			"byteLength":5760,
			"byteOffset":1321600,
			"target":34963
		},
		{
			"buffer":0,
			"byteLength":23808,
			"byteOffset":1327360,
			"target":34962
		},
		{
			"buffer":0,
			"byteLength":23808,
			"byteOffset":1351168,
			"target":34962
		},
		{
			"buffer":0,
			"byteLength":15872,
			"byteOffset":1374976,
			"target":34962
		},
		{
			"buffer":0,
			"byteLength":5760,
			"byteOffset":1390848,
			"target":34963
		}
	],
	"samplers":[
		{
			"magFilter":9729,
			"minFilter":9987
		}
	],
	"buffers":[
		{
			"byteLength":1396608,
			"uri":"aliendriver1_separate.bin"
		}
	]
}
