{
	"asset":{
		"generator":"Khronos glTF Blender I/O v3.6.27",
		"version":"2.0"
	},
	"scene":0,
	"scenes":[
		{
			"name":"Scene",
			"nodes":[
				0,
				1
			]
		}
	],
	"nodes":[
		{
			"name":"BezierCurve"
		},
		{
			"mesh":0,
			"name":"donut & icing"
		}
	],
	"materials":[
		{
			"doubleSided":true,
			"name":"Material",
			"pbrMetallicRoughness":{
				"baseColorTexture":{
					"index":0
				},
				"metallicFactor":0,
				"roughnessFactor":0.5
			}
		},
		{
			"doubleSided":true,
			"name":"Material.001",
			"pbrMetallicRoughness":{
				"baseColorTexture":{
					"index":1
				},
				"metallicFactor":0,
				"roughnessFactor":0.5
			}
		}
	],
	"meshes":[
		{
			"name":"Torus.001",
			"primitives":[
				{
					"attributes":{
						"POSITION":0,
						"NORMAL":1,
						"TEXCOORD_0":2
					},
					"indices":3,
					"material":0
				},
				{
					"attributes":{
						"POSITION":4,
						"NORMAL":5,
						"TEXCOORD_0":6
					},
					"indices":7,
					"material":1
				}
			]
		}
	],
	"textures":[
		{
			"sampler":0,
			"source":0
		},
		{
			"sampler":0,
			"source":0
		}
	],
	"images":[
		{
			"mimeType":"image/png",
			"name":"colorwheel",
			"uri":"colorwheel.png"
		}
	],
	"accessors":[
		{
			"bufferView":0,
			"componentType":5126,
			"count":11464,
			"max":[
				0.05361047014594078,
				0.02525130845606327,
				0.05183819681406021
			],
			"min":[
				-0.05328425019979477,
				-0.011189093813300133,
				-0.053143665194511414
			],
			"type":"VEC3"
		},
		{
			"bufferView":1,
			"componentType":5126,
			"count":11464,
			"type":"VEC3"
		},
		{
			"bufferView":2,
			"componentType":5126,
			"count":11464,
			"type":"VEC2"
		},
		{
			"bufferView":3,
			"componentType":5123,
			"count":65952,
			"type":"SCALAR"
		},
		{
			"bufferView":4,
			"componentType":5126,
			"count":2673,
			"max":[
				0.05054748058319092,
				0.021245485171675682,
				0.05029633641242981
			],
			"min":[
				-0.05196426436305046,
				-0.018843939527869225,
				-0.051850832998752594
			],
			"type":"VEC3"
		},
		{
			"bufferView":5,
			"componentType":5126,
			"count":2673,
			"type":"VEC3"
		},
		{
			"bufferView":6,
			"componentType":5126,
			"count":2673,
			"type":"VEC2"
		},
		{
			"bufferView":7,
			"componentType":5123,
			"count":15360,
			"type":"SCALAR"
		}
	],
	"bufferViews":[
		{
			"buffer":0,
			"byteLength":137568,
			"byteOffset":0,
			"target":34962
		},
		{
			"buffer":0,
			"byteLength":137568,
			"byteOffset":137568,
			"target":34962
		},
		{
			"buffer":0,
			"byteLength":91712,
			"byteOffset":275136,
			"target":34962
		},
		{
			"buffer":0,
			"byteLength":131904,
			"byteOffset":366848,
			"target":34963
		},
		{
			"buffer":0,
			"byteLength":32076,
			"byteOffset":498752,
			"target":34962
		},
		{
			"buffer":0,
			"byteLength":32076,
			"byteOffset":530828,
			"target":34962
		},
		{
			"buffer":0,
			"byteLength":21384,
			"byteOffset":562904,
			"target":34962
		},
		{
			"buffer":0,
			"byteLength":30720,
			"byteOffset":584288,
			"target":34963
		}
	],
	"samplers":[
		{
			"magFilter":9729,
			"minFilter":9987
		}
	],
	"buffers":[
		{
			"byteLength":615008,
			"uri":"donut_separate.bin"
		}
	]
}
