{
	"asset":{
		"generator":"Khronos glTF Blender I/O v3.6.27",
		"version":"2.0"
	},
	"scene":0,
	"scenes":[
		{
			"name":"Scene",
			"nodes":[
				0
			]
		}
	],
	"nodes":[
		{
			"mesh":0,
			"name":"Fire"
		}
	],
	"materials":[
		{
			"doubleSided":true,
			"name":"Material.003",
			"pbrMetallicRoughness":{
				"baseColorTexture":{
					"index":0
				},
				"metallicFactor":0,
				"roughnessFactor":0.5
			}
		},
		{
			"doubleSided":true,
			"name":"Material.001",
			"pbrMetallicRoughness":{
				"baseColorFactor":[
					0.8000000715255737,
					0.02197357825934887,
					0.005213484633713961,
					1
				],
				"metallicFactor":0,
				"roughnessFactor":0.5
			}
		},
		{
			"doubleSided":true,
			"name":"Material.002",
			"pbrMetallicRoughness":{
				"baseColorFactor":[
					0.8000000715255737,
					0.30721956491470337,
					0,
					1
				],
				"metallicFactor":0,
				"roughnessFactor":0.5
			}
		},
		{
			"doubleSided":true,
			"name":"Material.004",
			"pbrMetallicRoughness":{
				"baseColorFactor":[
					0.9210783839225769,
					1,
					0.9940856099128723,
					1
				],
				"metallicFactor":0,
				"roughnessFactor":0.5
			}
		}
	],
	"meshes":[
		{
			"name":"Plane.002",
			"primitives":[
				{
					"attributes":{
						"POSITION":0,
						"NORMAL":1,
						"TEXCOORD_0":2
					},
					"indices":3,
					"material":0
				},
				{
					"attributes":{
						"POSITION":4,
						"NORMAL":5,
						"TEXCOORD_0":6
					},
					"indices":7,
					"material":1
				},
				{
					"attributes":{
						"POSITION":8,
						"NORMAL":9,
						"TEXCOORD_0":10
					},
					"indices":11,
					"material":2
				},
				{
					"attributes":{
						"POSITION":12,
						"NORMAL":13,
						"TEXCOORD_0":14
					},
					"indices":15,
					"material":3
				}
			]
		}
	],
	"textures":[
		{
			"sampler":0,
			"source":0
		}
	],
	"images":[
		{
			"mimeType":"image/jpeg",
			"name":"fire",
			"uri":"fire.jpg"
		}
	],
	"accessors":[
		{
			"bufferView":0,
			"componentType":5126,
			"count":2048,
			"max":[
				0.29523560404777527,
				0.1542903035879135,
				0.08315347880125046
			],
			"min":[
				-0.4154396653175354,
				-0.8755349516868591,
				-0.0073245554231107235
			],
			"type":"VEC3"
		},
		{
			"bufferView":1,
			"componentType":5126,
			"count":2048,
			"type":"VEC3"
		},
		{
			"bufferView":2,
			"componentType":5126,
			"count":2048,
			"type":"VEC2"
		},
		{
			"bufferView":3,
			"componentType":5123,
			"count":3072,
			"type":"SCALAR"
		},
		{
			"bufferView":4,
			"componentType":5126,
			"count":2048,
			"max":[
				1.2396457195281982,
				2.6982967853546143,
				0.07731768488883972
			],
			"min":[
				-1.301581621170044,
				-0.9410218000411987,
				-0.10293165594339371
			],
			"type":"VEC3"
		},
		{
			"bufferView":5,
			"componentType":5126,
			"count":2048,
			"type":"VEC3"
		},
		{
			"bufferView":6,
			"componentType":5126,
			"count":2048,
			"type":"VEC2"
		},
		{
			"bufferView":7,
			"componentType":5123,
			"count":3072,
			"type":"SCALAR"
		},
		{
			"bufferView":8,
			"componentType":5126,
			"count":2048,
			"max":[
				0.7214128971099854,
				1.2897486686706543,
				0.07951488345861435
			],
			"min":[
				-0.8181766867637634,
				-0.9147266149520874,
				-0.05421359837055206
			],
			"type":"VEC3"
		},
		{
			"bufferView":9,
			"componentType":5126,
			"count":2048,
			"type":"VEC3"
		},
		{
			"bufferView":10,
			"componentType":5126,
			"count":2048,
			"type":"VEC2"
		},
		{
			"bufferView":11,
			"componentType":5123,
			"count":3072,
			"type":"SCALAR"
		},
		{
			"bufferView":12,
			"componentType":5126,
			"count":2048,
			"max":[
				0.05284048616886139,
				-0.28401604294776917,
				0.12467736750841141
			],
			"min":[
				-0.24046364426612854,
				-0.7059004306793213,
				0.05511047691106796
			],
			"type":"VEC3"
		},
		{
			"bufferView":13,
			"componentType":5126,
			"count":2048,
			"type":"VEC3"
		},
		{
			"bufferView":14,
			"componentType":5126,
			"count":2048,
			"type":"VEC2"
		},
		{
			"bufferView":15,
			"componentType":5123,
			"count":3072,
			"type":"SCALAR"
		}
	],
	"bufferViews":[
		{
			"buffer":0,
			"byteLength":24576,
			"byteOffset":0,
			"target":34962
		},
		{
			"buffer":0,
			"byteLength":24576,
			"byteOffset":24576,
			"target":34962
		},
		{
			"buffer":0,
			"byteLength":16384,
			"byteOffset":49152,
			"target":34962
		},
		{
			"buffer":0,
			"byteLength":6144,
			"byteOffset":65536,
			"target":34963
		},
		{
			"buffer":0,
			"byteLength":24576,
			"byteOffset":71680,
			"target":34962
		},
		{
			"buffer":0,
			"byteLength":24576,
			"byteOffset":96256,
			"target":34962
		},
		{
			"buffer":0,
			"byteLength":16384,
			"byteOffset":120832,
			"target":34962
		},
		{
			"buffer":0,
			"byteLength":6144,
			"byteOffset":137216,
			"target":34963
		},
		{
			"buffer":0,
			"byteLength":24576,
			"byteOffset":143360,
			"target":34962
		},
		{
			"buffer":0,
			"byteLength":24576,
			"byteOffset":167936,
			"target":34962
		},
		{
			"buffer":0,
			"byteLength":16384,
			"byteOffset":192512,
			"target":34962
		},
		{
			"buffer":0,
			"byteLength":6144,
			"byteOffset":208896,
			"target":34963
		},
		{
			"buffer":0,
			"byteLength":24576,
			"byteOffset":215040,
			"target":34962
		},
		{
			"buffer":0,
			"byteLength":24576,
			"byteOffset":239616,
			"target":34962
		},
		{
			"buffer":0,
			"byteLength":16384,
			"byteOffset":264192,
			"target":34962
		},
		{
			"buffer":0,
			"byteLength":6144,
			"byteOffset":280576,
			"target":34963
		}
	],
	"samplers":[
		{
			"magFilter":9729,
			"minFilter":9987
		}
	],
	"buffers":[
		{
			"byteLength":286720,
			"uri":"fire_separate.bin"
		}
	]
}
