{
	"asset":{
		"generator":"Khronos glTF Blender I/O v3.6.27",
		"version":"2.0"
	},
	"scene":0,
	"scenes":[
		{
			"name":"Scene",
			"nodes":[
				0
			]
		}
	],
	"nodes":[
		{
			"mesh":0,
			"name":"hotdog"
		}
	],
	"materials":[
		{
			"doubleSided":true,
			"name":"Material.001",
			"pbrMetallicRoughness":{
				"baseColorTexture":{
					"index":0
				},
				"metallicFactor":0,
				"roughnessFactor":0.5
			}
		}
	],
	"meshes":[
		{
			"name":"Cube.003",
			"primitives":[
				{
					"attributes":{
						"POSITION":0,
						"NORMAL":1,
						"TEXCOORD_0":2
					},
					"indices":3,
					"material":0
				}
			]
		}
	],
	"textures":[
		{
			"sampler":0,
			"source":0
		}
	],
	"images":[
		{
			"mimeType":"image/png",
			"name":"hotdogimage",
			"uri":"hotdogimage.png"
		}
	],
	"accessors":[
		{
			"bufferView":0,
			"componentType":5126,
			"count":632510,
			"max":[
				0.3336953818798065,
				0.1600281447172165,
				1.3191715478897095
			],
			"min":[
				-0.3336953818798065,
				-0.43251702189445496,
				-1.3191715478897095
			],
			"type":"VEC3"
		},
		{
			"bufferView":1,
			"componentType":5126,
			"count":632510,
			"type":"VEC3"
		},
		{
			"bufferView":2,
			"componentType":5126,
			"count":632510,
			"type":"VEC2"
		},
		{
			"bufferView":3,
			"componentType":5125,
			"count":950016,
			"type":"SCALAR"
		}
	],
	"bufferViews":[
		{
			"buffer":0,
			"byteLength":7590120,
			"byteOffset":0,
			"target":34962
		},
		{
			"buffer":0,
			"byteLength":7590120,
			"byteOffset":7590120,
			"target":34962
		},
		{
			"buffer":0,
			"byteLength":5060080,
			"byteOffset":15180240,
			"target":34962
		},
		{
			"buffer":0,
			"byteLength":3800064,
			"byteOffset":20240320,
			"target":34963
		}
	],
	"samplers":[
		{
			"magFilter":9729,
			"minFilter":9987
		}
	],
	"buffers":[
		{
			"byteLength":24040384,
			"uri":"hotdog_separate.bin"
		}
	]
}
