{
	"asset":{
		"generator":"Khronos glTF Blender I/O v3.6.27",
		"version":"2.0"
	},
	"scene":0,
	"scenes":[
		{
			"name":"Scene",
			"nodes":[
				0
			]
		}
	],
	"nodes":[
		{
			"mesh":0,
			"name":"rubikscube"
		}
	],
	"materials":[
		{
			"doubleSided":true,
			"name":"Material",
			"pbrMetallicRoughness":{
				"baseColorTexture":{
					"index":0
				},
				"metallicFactor":0,
				"roughnessFactor":0.5
			}
		}
	],
	"meshes":[
		{
			"name":"Cube.030",
			"primitives":[
				{
					"attributes":{
						"POSITION":0,
						"NORMAL":1,
						"TEXCOORD_0":2
					},
					"indices":3,
					"material":0
				}
			]
		}
	],
	"textures":[
		{
			"sampler":0,
			"source":0
		}
	],
	"images":[
		{
			"mimeType":"image/png",
			"name":"colorwheel",
			"uri":"colorwheel.png"
		}
	],
	"accessors":[
		{
			"bufferView":0,
			"componentType":5126,
			"count":16520,
			"max":[
				0.9699999094009399,
				0.9699999690055847,
				0.9700000286102295
			],
			"min":[
				-0.9700000286102295,
				-0.9699999690055847,
				-0.9699999094009399
			],
			"type":"VEC3"
		},
		{
			"bufferView":1,
			"componentType":5126,
			"count":16520,
			"type":"VEC3"
		},
		{
			"bufferView":2,
			"componentType":5126,
			"count":16520,
			"type":"VEC2"
		},
		{
			"bufferView":3,
			"componentType":5123,
			"count":24012,
			"type":"SCALAR"
		}
	],
	"bufferViews":[
		{
			"buffer":0,
			"byteLength":198240,
			"byteOffset":0,
			"target":34962
		},
		{
			"buffer":0,
			"byteLength":198240,
			"byteOffset":198240,
			"target":34962
		},
		{
			"buffer":0,
			"byteLength":132160,
			"byteOffset":396480,
			"target":34962
		},
		{
			"buffer":0,
			"byteLength":48024,
			"byteOffset":528640,
			"target":34963
		}
	],
	"samplers":[
		{
			"magFilter":9729,
			"minFilter":9987
		}
	],
	"buffers":[
		{
			"byteLength":576664,
			"uri":"rubikscube_separate.bin"
		}
	]
}
