{
	"asset":{
		"generator":"Khronos glTF Blender I/O v3.6.27",
		"version":"2.0"
	},
	"scene":0,
	"scenes":[
		{
			"name":"Scene",
			"nodes":[
				0
			]
		}
	],
	"nodes":[
		{
			"mesh":0,
			"name":"Sphere"
		}
	],
	"materials":[
		{
			"doubleSided":true,
			"name":"Material",
			"pbrMetallicRoughness":{
				"baseColorTexture":{
					"index":0
				},
				"metallicFactor":0,
				"roughnessFactor":0.5
			}
		}
	],
	"meshes":[
		{
			"name":"Sphere",
			"primitives":[
				{
					"attributes":{
						"POSITION":0,
						"NORMAL":1,
						"TEXCOORD_0":2
					},
					"indices":3,
					"material":0
				}
			]
		}
	],
	"textures":[
		{
			"sampler":0,
			"source":0
		}
	],
	"images":[
		{
			"mimeType":"image/png",
			"name":"blackhole",
			"uri":"blackhole.png"
		}
	],
	"accessors":[
		{
			"bufferView":0,
			"componentType":5126,
			"count":3968,
			"max":[
				1.7131469249725342,
				1.5930416584014893,
				2.199141263961792
			],
			"min":[
				-1.9469215869903564,
				-1.9817779064178467,
				-1.8210663795471191
			],
			"type":"VEC3"
		},
		{
			"bufferView":1,
			"componentType":5126,
			"count":3968,
			"type":"VEC3"
		},
		{
			"bufferView":2,
			"componentType":5126,
			"count":3968,
			"type":"VEC2"
		},
		{
			"bufferView":3,
			"componentType":5123,
			"count":5760,
			"type":"SCALAR"
		}
	],
	"bufferViews":[
		{
			"buffer":0,
			"byteLength":47616,
			"byteOffset":0,
			"target":34962
		},
		{
			"buffer":0,
			"byteLength":47616,
			"byteOffset":47616,
			"target":34962
		},
		{
			"buffer":0,
			"byteLength":31744,
			"byteOffset":95232,
			"target":34962
		},
		{
			"buffer":0,
			"byteLength":11520,
			"byteOffset":126976,
			"target":34963
		}
	],
	"samplers":[
		{
			"magFilter":9729,
			"minFilter":9987
		}
	],
	"buffers":[
		{
			"byteLength":138496,
			"uri":"spikyball_separate.bin"
		}
	]
}
