{
	"asset":{
		"generator":"Khronos glTF Blender I/O v3.6.27",
		"version":"2.0"
	},
	"scene":0,
	"scenes":[
		{
			"name":"Scene",
			"nodes":[
				0,
				1,
				2,
				3
			]
		}
	],
	"nodes":[
		{
			"mesh":0,
			"name":"base"
		},
		{
			"mesh":1,
			"name":"shell"
		},
		{
			"mesh":2,
			"name":"shell.002"
		},
		{
			"mesh":3,
			"name":"shell.003"
		}
	],
	"materials":[
		{
			"doubleSided":true,
			"name":"Material.002",
			"pbrMetallicRoughness":{
				"baseColorFactor":[
					0.006284833885729313,
					0.006729080341756344,
					0.006605972070246935,
					1
				],
				"metallicFactor":0,
				"roughnessFactor":0.5
			}
		},
		{
			"doubleSided":true,
			"name":"Material",
			"pbrMetallicRoughness":{
				"baseColorTexture":{
					"index":0
				},
				"metallicFactor":0,
				"roughnessFactor":0.5
			}
		},
		{
			"doubleSided":true,
			"name":"Material.003",
			"pbrMetallicRoughness":{
				"baseColorFactor":[
					0,
					0,
					0,
					1
				],
				"metallicFactor":0,
				"roughnessFactor":0.5
			}
		},
		{
			"doubleSided":true,
			"name":"Material.005",
			"pbrMetallicRoughness":{
				"baseColorFactor":[
					1,
					0.02491026744246483,
					0.011043552309274673,
					1
				],
				"metallicFactor":0,
				"roughnessFactor":0.5
			}
		}
	],
	"meshes":[
		{
			"name":"Sphere.001",
			"primitives":[
				{
					"attributes":{
						"POSITION":0,
						"NORMAL":1,
						"TEXCOORD_0":2
					},
					"indices":3,
					"material":0
				}
			]
		},
		{
			"name":"Sphere.003",
			"primitives":[
				{
					"attributes":{
						"POSITION":4,
						"NORMAL":5,
						"TEXCOORD_0":6
					},
					"indices":7,
					"material":1
				}
			]
		},
		{
			"name":"Sphere.005",
			"primitives":[
				{
					"attributes":{
						"POSITION":8,
						"NORMAL":9,
						"TEXCOORD_0":10
					},
					"indices":11,
					"material":2
				}
			]
		},
		{
			"name":"Sphere.007",
			"primitives":[
				{
					"attributes":{
						"POSITION":12,
						"NORMAL":13,
						"TEXCOORD_0":14
					},
					"indices":15,
					"material":3
				}
			]
		}
	],
	"textures":[
		{
			"sampler":0,
			"source":0
		}
	],
	"images":[
		{
			"mimeType":"image/png",
			"name":"colorwheel",
			"uri":"colorwheel.png"
		}
	],
	"accessors":[
		{
			"bufferView":0,
			"componentType":5126,
			"count":1648,
			"max":[
				0.5522691607475281,
				0.5147839188575745,
				1
			],
			"min":[
				-0.5522695183753967,
				-0.5248693823814392,
				-1
			],
			"type":"VEC3"
		},
		{
			"bufferView":1,
			"componentType":5126,
			"count":1648,
			"type":"VEC3"
		},
		{
			"bufferView":2,
			"componentType":5126,
			"count":1648,
			"type":"VEC2"
		},
		{
			"bufferView":3,
			"componentType":5123,
			"count":2448,
			"type":"SCALAR"
		},
		{
			"bufferView":4,
			"componentType":5126,
			"count":3632,
			"max":[
				0.588570237159729,
				0.5266736745834351,
				1.0220502614974976
			],
			"min":[
				-0.5796079039573669,
				-0.07663130015134811,
				-1.0320225954055786
			],
			"type":"VEC3"
		},
		{
			"bufferView":5,
			"componentType":5126,
			"count":3632,
			"type":"VEC3"
		},
		{
			"bufferView":6,
			"componentType":5126,
			"count":3632,
			"type":"VEC2"
		},
		{
			"bufferView":7,
			"componentType":5123,
			"count":5448,
			"type":"SCALAR"
		},
		{
			"bufferView":8,
			"componentType":5126,
			"count":1808,
			"max":[
				0.16438671946525574,
				0.8389632105827332,
				1.0415433645248413
			],
			"min":[
				-0.15542395412921906,
				-0.07800299674272537,
				-1.0515156984329224
			],
			"type":"VEC3"
		},
		{
			"bufferView":9,
			"componentType":5126,
			"count":1808,
			"type":"VEC3"
		},
		{
			"bufferView":10,
			"componentType":5126,
			"count":1808,
			"type":"VEC2"
		},
		{
			"bufferView":11,
			"componentType":5123,
			"count":2472,
			"type":"SCALAR"
		},
		{
			"bufferView":12,
			"componentType":5126,
			"count":256,
			"max":[
				0.08268007636070251,
				0.35332074761390686,
				1.023862600326538
			],
			"min":[
				-0.07371772825717926,
				0.06990765780210495,
				-1.033705472946167
			],
			"type":"VEC3"
		},
		{
			"bufferView":13,
			"componentType":5126,
			"count":256,
			"type":"VEC3"
		},
		{
			"bufferView":14,
			"componentType":5126,
			"count":256,
			"type":"VEC2"
		},
		{
			"bufferView":15,
			"componentType":5123,
			"count":384,
			"type":"SCALAR"
		}
	],
	"bufferViews":[
		{
			"buffer":0,
			"byteLength":19776,
			"byteOffset":0,
			"target":34962
		},
		{
			"buffer":0,
			"byteLength":19776,
			"byteOffset":19776,
			"target":34962
		},
		{
			"buffer":0,
			"byteLength":13184,
			"byteOffset":39552,
			"target":34962
		},
		{
			"buffer":0,
			"byteLength":4896,
			"byteOffset":52736,
			"target":34963
		},
		{
			"buffer":0,
			"byteLength":43584,
			"byteOffset":57632,
			"target":34962
		},
		{
			"buffer":0,
			"byteLength":43584,
			"byteOffset":101216,
			"target":34962
		},
		{
			"buffer":0,
			"byteLength":29056,
			"byteOffset":144800,
			"target":34962
		},
		{
			"buffer":0,
			"byteLength":10896,
			"byteOffset":173856,
			"target":34963
		},
		{
			"buffer":0,
			"byteLength":21696,
			"byteOffset":184752,
			"target":34962
		},
		{
			"buffer":0,
			"byteLength":21696,
			"byteOffset":206448,
			"target":34962
		},
		{
			"buffer":0,
			"byteLength":14464,
			"byteOffset":228144,
			"target":34962
		},
		{
			"buffer":0,
			"byteLength":4944,
			"byteOffset":242608,
			"target":34963
		},
		{
			"buffer":0,
			"byteLength":3072,
			"byteOffset":247552,
			"target":34962
		},
		{
			"buffer":0,
			"byteLength":3072,
			"byteOffset":250624,
			"target":34962
		},
		{
			"buffer":0,
			"byteLength":2048,
			"byteOffset":253696,
			"target":34962
		},
		{
			"buffer":0,
			"byteLength":768,
			"byteOffset":255744,
			"target":34963
		}
	],
	"samplers":[
		{
			"magFilter":9729,
			"minFilter":9987
		}
	],
	"buffers":[
		{
			"byteLength":256512,
			"uri":"yellowshell_separate.bin"
		}
	]
}
